<svg xmlns="http://www.w3.org/2000/svg" xmlns:xlink="http://www.w3.org/1999/xlink" width="512" zoomAndPan="magnify" viewBox="0 0 384 383.999986" height="512" preserveAspectRatio="xMidYMid meet" version="1.0"><defs><clipPath id="f592f0a507"><path d="M 75 58.367188 L 309 58.367188 L 309 325.367188 L 75 325.367188 Z M 75 58.367188 " clip-rule="nonzero"/></clipPath><clipPath id="59ee9d2358"><path d="M 114 286 L 154 286 L 154 325.367188 L 114 325.367188 Z M 114 286 " clip-rule="nonzero"/></clipPath></defs><g clip-path="url(#f592f0a507)"><path fill="#518be3" d="M 303.1875 84.222656 C 230.585938 92.832031 192.148438 58.386719 192.148438 58.386719 C 192.148438 58.386719 153.714844 92.832031 81.113281 84.222656 C 81.113281 84.222656 38.40625 256.457031 192.148438 325.347656 C 345.894531 256.457031 303.1875 84.222656 303.1875 84.222656 Z M 303.1875 84.222656 " fill-opacity="1" fill-rule="nonzero"/></g><path fill="#2564c4" d="M 192.148438 296.726562 C 98.003906 248.46875 96.855469 153.695312 101.621094 111.433594 C 102.132812 111.4375 102.636719 111.441406 103.144531 111.441406 C 145.070312 111.4375 174.90625 99.308594 192.148438 89.523438 C 209.390625 99.308594 239.226562 111.441406 281.15625 111.441406 C 281.667969 111.441406 282.171875 111.4375 282.683594 111.433594 C 287.441406 153.644531 286.316406 248.457031 192.148438 296.726562 Z M 192.148438 296.726562 " fill-opacity="1" fill-rule="nonzero"/><path fill="#f8ead3" d="M 243.921875 174.644531 L 209.40625 174.644531 L 209.40625 140.199219 L 174.894531 140.199219 L 174.894531 174.644531 L 140.378906 174.644531 L 140.378906 209.089844 L 174.894531 209.089844 L 174.894531 243.539062 L 209.40625 243.539062 L 209.40625 209.089844 L 243.921875 209.089844 Z M 243.921875 174.644531 " fill-opacity="1" fill-rule="nonzero"/><g clip-path="url(#59ee9d2358)"><path fill="#32addb" d="M 118.808594 325.347656 C 117.703125 325.347656 116.597656 324.929688 115.757812 324.085938 C 114.070312 322.40625 114.070312 319.679688 115.757812 318 L 145.957031 287.859375 C 147.640625 286.175781 150.371094 286.175781 152.058594 287.859375 C 153.742188 289.539062 153.742188 292.265625 152.058594 293.945312 L 121.859375 324.085938 C 121.015625 324.929688 119.910156 325.347656 118.808594 325.347656 Z M 118.808594 325.347656 " fill-opacity="1" fill-rule="nonzero"/></g><path fill="#32addb" d="M 231.320312 173.113281 L 267.929688 209.652344 L 182.511719 294.902344 C 179.144531 298.261719 173.675781 298.261719 170.308594 294.902344 L 145.902344 270.546875 C 142.535156 267.183594 142.535156 261.726562 145.902344 258.367188 Z M 231.320312 173.113281 " fill-opacity="1" fill-rule="nonzero"/><path fill="#71d6fc" d="M 152.003906 276.632812 L 164.207031 288.8125 L 152.003906 300.992188 L 139.800781 288.8125 Z M 152.003906 276.632812 " fill-opacity="1" fill-rule="nonzero"/><path fill="#71d6fc" d="M 231.320312 148.757812 L 292.335938 209.652344 L 280.132812 221.828125 L 219.121094 160.9375 Z M 231.320312 148.757812 " fill-opacity="1" fill-rule="nonzero"/><path fill="#71d6fc" d="M 283.183594 115.265625 L 325.890625 157.890625 L 313.691406 170.070312 L 270.980469 127.445312 Z M 283.183594 115.265625 " fill-opacity="1" fill-rule="nonzero"/><path fill="#32addb" d="M 286.234375 142.667969 L 298.4375 154.847656 L 267.929688 185.292969 L 255.726562 173.113281 Z M 286.234375 142.667969 " fill-opacity="1" fill-rule="nonzero"/><path fill="#298bb0" d="M 237.425781 215.738281 L 243.523438 209.652344 L 255.726562 221.828125 L 249.625 227.917969 Z M 237.425781 215.738281 " fill-opacity="1" fill-rule="nonzero"/><path fill="#298bb0" d="M 225.222656 227.917969 L 231.324219 221.828125 L 243.527344 234.011719 L 237.425781 240.097656 Z M 225.222656 227.917969 " fill-opacity="1" fill-rule="nonzero"/><path fill="#298bb0" d="M 213.019531 240.097656 L 219.117188 234.007812 L 231.324219 246.1875 L 225.222656 252.277344 Z M 213.019531 240.097656 " fill-opacity="1" fill-rule="nonzero"/><path fill="#298bb0" d="M 200.816406 252.277344 L 206.917969 246.1875 L 219.117188 258.363281 L 213.019531 264.453125 Z M 200.816406 252.277344 " fill-opacity="1" fill-rule="nonzero"/><path fill="#298bb0" d="M 188.613281 264.453125 L 194.714844 258.367188 L 206.917969 270.546875 L 200.816406 276.632812 Z M 188.613281 264.453125 " fill-opacity="1" fill-rule="nonzero"/><path fill="#298bb0" d="M 176.410156 276.636719 L 182.507812 270.546875 L 194.714844 282.722656 L 188.617188 288.8125 Z M 176.410156 276.636719 " fill-opacity="1" fill-rule="nonzero"/></svg>